# xmcd
# Track frame offsets:
# 150
# 11760
# 23775
# 33195
# 45113
# 57958
# 69548
# 83738
# 97728
# 108320
# 119723
# 133718
# 145663
# 155340
# 168225
# 181795
# 193713
# 205668
# 215920
# 227773
# 237568
# 249838
# 260085
# 270633
# 280113
# 290910
# 302263
#
# Disc length: 4176 seconds
# Revision: 2
# Processed by: cddbd v1.4PL0 Copyright (c) Steve Scherf et al.
# Submitted via: VisiTrax 2.9.5.181 - For more info visit www.synapsa.com
#
DISCID=78104e1b
DTITLE=Solitaires - Walking Along With
DYEAR=1992
DGENRE=Doo Wop
TTITLE0=Walking Along
TTITLE1=The Wedding
TTITLE2=How Long
TTITLE3=I Really Love You So (Honey Babe)
TTITLE4=Please Remember My Heart
TTITLE5=Blue Valentine
TTITLE6=Later For You Baby
TTITLE7=The Honeymoon
TTITLE8=The Angels Sang
TTITLE9=The Girl Is Gone
TTITLE10=I Don't Stand A Ghost Of A Chance
TTITLE11=Chances I've Taken
TTITLE12=Give Me One More Chance
TTITLE13=Please Kiss This Letter
TTITLE14=You've Sinned
TTITLE15=What Did She Say
TTITLE16=Wonder Why
TTITLE17=South Of The Border
TTITLE18=Fine Little Girl
TTITLE19=Nothing Like A Little Love
TTITLE20=At Night
TTITLE21=When Will The Lights Shine For Me
TTITLE22=Light A Candle In The Chapel
TTITLE23=My Dear
TTITLE24=Come Back My Love
TTITLE25=Stranger In Paradise
TTITLE26=The Time Is Here
EXTD=
EXTT0=
EXTT1=
EXTT2=
EXTT3=
EXTT4=
EXTT5=
EXTT6=
EXTT7=
EXTT8=
EXTT9=
EXTT10=
EXTT11=
EXTT12=
EXTT13=
EXTT14=
EXTT15=
EXTT16=
EXTT17=
EXTT18=
EXTT19=
EXTT20=
EXTT21=
EXTT22=
EXTT23=
EXTT24=
EXTT25=
EXTT26=
PLAYORDER=
